Coordinates
version=1
nRows=29
nColumns=38
inDegrees=no

Units are S.I. units (second, meters, Newtons, ...)
If the header above contains a line with 'inDegrees', this indicates whether rotational values are in degrees (yes) or radians (no).

endheader
time	pelvis_tilt	pelvis_list	pelvis_rotation	pelvis_tx	pelvis_ty	pelvis_tz	hip_flexion_r	hip_adduction_r	hip_rotation_r	knee_angle_r	ankle_angle_r	subtalar_angle_r	mtp_angle_r	hip_flexion_l	hip_adduction_l	hip_rotation_l	knee_angle_l	ankle_angle_l	subtalar_angle_l	mtp_angle_l	lumbar_extension	lumbar_bending	lumbar_rotation	arm_flex_r	arm_add_r	arm_rot_r	elbow_flex_r	pro_sup_r	wrist_flex_r	wrist_dev_r	arm_flex_l	arm_add_l	arm_rot_l	elbow_flex_l	pro_sup_l	wrist_flex_l	wrist_dev_l
0.54	0.0388629	0.032444	-0.0149801	0.759626	0.990152	-0.306081	0.444811	0.0301201	-0.058075	-0.315407	0.143102	-0.0149002	-0.00521914	-0.324971	0.0669143	0.0205018	-0.973597	-0.461401	0.00093536	-0.0184272	-0.275103	-0.0487812	-0.165439	-0.743586	-0.175451	-0.217664	1.67509	1.36695	-0.0425677	-0.0936555	0.0161262	-0.383061	0.257422	2.04504	1.79672	0.0999999	-0.0920333
0.55	0.0608214	0.0186769	-0.0199794	0.758042	0.98694	-0.304886	0.436665	0.0457937	-0.0700242	-0.409313	0.123939	-0.0149002	-0.00521914	-0.300769	0.0300917	-0.0170237	-1.10437	-0.46497	0.00093536	-0.0184272	-0.306665	-0.0340477	-0.139163	-0.722606	-0.187795	-0.218205	1.6867	1.35343	-0.0425677	-0.0936555	0.00868801	-0.381704	0.272005	2.02587	1.78891	0.0999999	-0.0920333
0.56	0.0791373	0.00446413	-0.0243253	0.75631	0.982894	-0.303941	0.426935	0.0622037	-0.0789181	-0.497457	0.120893	-0.0149002	-0.00521914	-0.26955	-0.00450266	-0.0475425	-1.22556	-0.459643	0.00093536	-0.0184272	-0.333751	-0.0191604	-0.113152	-0.69736	-0.202765	-0.216048	1.6948	1.34029	-0.0425677	-0.0936555	-0.000119364	-0.378212	0.281836	1.99735	1.78306	0.0999999	-0.0920333
0.57	0.0938412	-0.0100966	-0.027976	0.754495	0.978313	-0.303204	0.415464	0.0792404	-0.0848175	-0.579514	0.133633	-0.0149002	-0.00521914	-0.231317	-0.0366753	-0.0709434	-1.33709	-0.44568	0.00093536	-0.0184272	-0.356377	-0.00419173	-0.0874747	-0.66787	-0.22027	-0.211238	1.69937	1.32758	-0.0425677	-0.0936555	-0.0102625	-0.372618	0.286951	1.95957	1.77919	0.0999999	-0.0920333
0.58	0.105041	-0.0247128	-0.03081	0.752643	0.973575	-0.302632	0.401794	0.0965434	-0.0879257	-0.654578	0.16105	-0.0149002	-0.00521914	-0.186123	-0.065863	-0.086984	-1.43868	-0.423894	0.00093536	-0.0184272	-0.374604	0.0106173	-0.062329	-0.634251	-0.240032	-0.203932	1.70046	1.31546	-0.0425677	-0.0936555	-0.0216732	-0.365036	0.28745	1.91285	1.77733	0.0999999	-0.0920333
0.59	0.112946	-0.0388294	-0.032625	0.750757	0.969008	-0.3022	0.385095	0.113412	-0.0886129	-0.721129	0.200934	-0.0149002	-0.00521914	-0.134199	-0.091088	-0.0954209	-1.52981	-0.395776	0.00093536	-0.0184272	-0.388594	0.0247907	-0.0380728	-0.596824	-0.261528	-0.194492	1.69829	1.30421	-0.0425677	-0.0936555	-0.0343074	-0.3557	0.283488	1.85801	1.77753	0.0999999	-0.0920333
0.6	0.117888	-0.0516084	-0.0332064	0.748824	0.964826	-0.301925	0.364253	0.128833	-0.0873234	-0.777254	0.249964	-0.0149002	-0.00521914	-0.076095	-0.11109	-0.0962864	-1.60966	-0.363345	0.00093536	-0.0184272	-0.39864	0.0376072	-0.0151749	-0.556225	-0.284	-0.183535	1.69337	1.29406	-0.0425677	-0.0936555	-0.0482507	-0.345003	0.275233	1.79669	1.77981	0.0999999	-0.0920333
0.61	0.120318	-0.0620276	-0.0324241	0.74687	0.961193	-0.30185	0.338077	0.14161	-0.0844436	-0.82103	0.304021	-0.0149002	-0.00521914	-0.012791	-0.124581	-0.0901768	-1.6772	-0.328789	0.00093536	-0.0184272	-0.405142	0.0481419	0.00588672	-0.513457	-0.306533	-0.171949	1.68664	1.28518	-0.0425677	-0.0936555	-0.06383	-0.333512	0.26282	1.73141	1.78402	0.0999999	-0.0920333
0.62	0.120751	-0.0690591	-0.0303345	0.74499	0.958281	-0.301974	0.305583	0.150559	-0.0802289	-0.850912	0.358631	-0.0149002	-0.00521914	0.0543224	-0.13056	-0.0784324	-1.7313	-0.294065	0.00093536	-0.0184272	-0.408509	0.0553749	0.024746	-0.469869	-0.328169	-0.160835	1.6794	1.27765	-0.0425677	-0.0936555	-0.0816744	-0.321953	0.246332	1.66564	1.78978	0.0999999	-0.0920333
0.63	0.11963	-0.0718628	-0.0272218	0.743314	0.956254	-0.30224	0.266231	0.154692	-0.0748293	-0.865981	0.409378	-0.0149002	-0.00521914	0.123568	-0.128578	-0.0631116	-1.77088	-0.260621	0.00093536	-0.0184272	-0.409054	0.0583383	0.0412554	-0.427055	-0.348029	-0.151407	1.67318	1.27148	-0.0425677	-0.0936555	-0.10268	-0.311152	0.225831	1.60344	1.79628	0.0999999	-0.0920333
0.64	0.117211	-0.0698892	-0.023575	0.741974	0.955214	-0.302591	0.220062	0.153358	-0.0683945	-0.866034	0.452152	-0.0149002	-0.00521914	0.193171	-0.118879	-0.0467542	-1.79505	-0.229304	0.00093536	-0.0184272	-0.406917	0.0562952	0.0555437	-0.386692	-0.365409	-0.144843	1.66949	1.26674	-0.0425677	-0.0936555	-0.127863	-0.301935	0.201437	1.54896	1.80233	0.0999999	-0.0920333
0.65	0.113542	-0.0629648	-0.0199988	0.741099	0.955176	-0.302991	0.167711	0.146294	-0.0612024	-0.851527	0.483289	-0.0149002	-0.00521914	0.261453	-0.102372	-0.0320119	-1.80319	-0.200423	0.00093536	-0.0184272	-0.402029	0.0488637	0.0679985	-0.350369	-0.379864	-0.142118	1.66959	1.26356	-0.0425677	-0.0936555	-0.158144	-0.295006	0.173424	1.50583	1.80642	0.0999999	-0.0920333
0.66	0.108509	-0.0513033	-0.017098	0.740809	0.956105	-0.303405	0.1103	0.133607	-0.0537389	-0.82348	0.499646	-0.0149002	-0.00521914	0.326925	-0.0804816	-0.0212673	-1.79497	-0.173918	0.00093536	-0.0184272	-0.394183	0.0360792	0.079204	-0.319424	-0.391244	-0.143845	1.67432	1.26207	-0.0425677	-0.0936555	-0.194116	-0.290845	0.142298	1.47653	1.80698	0.0999999	-0.0920333
0.67	0.101945	-0.0354563	-0.0153841	0.741198	0.957933	-0.303807	0.0492798	0.115736	-0.0467029	-0.783383	0.498699	-0.0149002	-0.00521914	0.388304	-0.0549156	-0.0163279	-1.77024	-0.149568	0.00093536	-0.0184272	-0.383153	0.0183949	0.0898486	-0.294814	-0.399696	-0.150168	1.684	1.26238	-0.0425677	-0.0936555	-0.235875	-0.289638	0.108826	1.46208	1.80274	0.0999999	-0.0920333
0.68	0.0937225	-0.0162449	-0.015214	0.742319	0.960567	-0.304198	-0.0137165	0.093391	-0.0409402	-0.733167	0.478686	-0.0149002	-0.00521914	0.444485	-0.0274448	-0.0182335	-1.72899	-0.127165	0.00093536	-0.0184272	-0.368831	-0.00336133	0.100618	-0.277024	-0.405623	-0.160728	1.69846	1.26451	-0.0425677	-0.0936555	-0.282962	-0.291262	0.0739815	1.46197	1.793	0.0999999	-0.0920333
0.69	0.0838201	0.00531131	-0.0167516	0.744169	0.963883	-0.304592	-0.0769702	0.0675066	-0.0373308	-0.675199	0.438821	-0.0149002	-0.00521914	0.494511	0.000286889	-0.0271675	-1.67125	-0.10661	0.00093536	-0.0184272	-0.351314	-0.0280546	0.11207	-0.266016	-0.409616	-0.1747	1.71711	1.26835	-0.0425677	-0.0936555	-0.334428	-0.295304	0.0388286	1.47434	1.77784	0.0999999	-0.0920333
0.7	0.0723586	0.0280633	-0.0199489	0.746678	0.967741	-0.305008	-0.138747	0.0392019	-0.0366419	-0.612299	0.37952	-0.0149002	-0.00521914	0.53756	0.0269006	-0.0424561	-1.59712	-0.0879179	0.00093536	-0.0184272	-0.330948	-0.0543251	0.124517	-0.261237	-0.412361	-0.190904	1.73904	1.27368	-0.0425677	-0.0936555	-0.388978	-0.301107	0.00435947	1.49648	1.7581	0.0999999	-0.0920333
0.71	0.0596039	0.0507929	-0.0245502	0.749719	0.971983	-0.305458	-0.197365	0.00975949	-0.0393786	-0.54771	0.302561	-0.0149002	-0.00521914	0.57294	0.0513428	-0.0626404	-1.50684	-0.0711235	0.00093536	-0.0184272	-0.30833	-0.080664	0.137947	-0.261685	-0.414539	-0.207964	1.76318	1.28024	-0.0425677	-0.0936555	-0.445155	-0.30784	-0.0286355	1.52521	1.73517	0.0999999	-0.0920333
0.72	0.0459504	0.0722482	-0.0301354	0.753119	0.976433	-0.30595	-0.251286	-0.0194021	-0.0456415	-0.485009	0.211119	-0.0149002	-0.00521914	0.60011	0.0728702	-0.085627	-1.40096	-0.056141	0.00093536	-0.0184272	-0.28428	-0.105504	0.152029	-0.266044	-0.416734	-0.224493	1.78838	1.28783	-0.0425677	-0.0936555	-0.501483	-0.31458	-0.0596465	1.55746	1.71062	0.0999999	-0.0920333
0.73	0.0319199	0.0911856	-0.0362173	0.756685	0.980899	-0.30648	-0.299223	-0.0467878	-0.0550132	-0.427927	0.109606	-0.0149002	-0.00521914	0.61872	0.0909765	-0.108921	-1.28069	-0.0426316	0.00093536	-0.0184272	-0.2598	-0.127331	0.166209	-0.272842	-0.41937	-0.239258	1.81358	1.29632	-0.0425677	-0.0936555	-0.55656	-0.320409	-0.0884552	1.59048	1.68603	0.0999999	-0.0920333
0.74	0.0181533	0.106441	-0.0423667	0.760234	0.985188	-0.307023	-0.340246	-0.0709388	-0.0665149	-0.380108	0.00332373	-0.0149002	-0.00521914	0.628681	0.105298	-0.129935	-1.14818	-0.0299528	0.00093536	-0.0184272	-0.236029	-0.144811	0.179873	-0.280621	-0.422682	-0.251312	1.83784	1.30562	-0.0425677	-0.0936555	-0.609087	-0.324514	-0.115082	1.62216	1.66285	0.0999999	-0.0920333
0.75	0.00538334	0.117037	-0.0483096	0.76362	0.989129	-0.307531	-0.373848	-0.0905982	-0.0786834	-0.344851	-0.101998	-0.0149002	-0.00521914	0.630266	0.115554	-0.14634	-1.00679	-0.0172318	0.00093536	-0.0184272	-0.214173	-0.156942	0.192483	-0.288094	-0.426716	-0.260074	1.86044	1.31561	-0.0425677	-0.0936555	-0.657864	-0.326282	-0.139683	1.65101	1.64225	0.0999999	-0.0920333
0.76	-0.00562135	0.122334	-0.0539526	0.766737	0.992581	-0.307944	-0.399953	-0.104901	-0.0897813	-0.324875	-0.200721	-0.0149002	-0.00521914	0.624188	0.121562	-0.15642	-0.861249	-0.00355932	0.00093536	-0.0184272	-0.195426	-0.163197	0.203666	-0.294278	-0.431359	-0.265361	1.88087	1.32615	-0.0425677	-0.0936555	-0.701781	-0.325384	-0.162423	1.67625	1.6251	0.0999999	-0.0920333
0.77	-0.0141361	0.122184	-0.0593337	0.769507	0.995445	-0.308206	-0.418845	-0.113539	-0.0981082	-0.32217	-0.287805	-0.0149002	-0.00521914	0.611617	0.123326	-0.159343	-0.717463	0.0117493	0.00093536	-0.0184272	-0.180861	-0.163633	0.213204	-0.29858	-0.436364	-0.267367	1.89881	1.337	-0.0425677	-0.0936555	-0.739813	-0.321834	-0.18336	1.69759	1.6118	0.0999999	-0.0920333
0.78	-0.0195759	0.117031	-0.0645363	0.771829	0.997595	-0.308304	-0.431037	-0.116857	-0.102342	-0.337931	-0.359304	-0.0149002	-0.00521914	0.594101	0.121174	-0.155291	-0.582062	0.0288922	0.00093536	-0.0184272	-0.171337	-0.158938	0.220982	-0.300828	-0.441374	-0.266591	1.91409	1.34782	-0.0425677	-0.0936555	-0.771035	-0.316014	-0.202368	1.71517	1.60232	0.0999999	-0.0920333
0.79	-0.0215249	0.10792	-0.0695901	0.77372	0.999078	-0.308253	-0.437096	-0.115863	-0.101848	-0.372573	-0.412811	-0.0149002	-0.00521914	0.573387	0.115858	-0.145388	-0.461649	0.0473875	0.00093536	-0.0184272	-0.167381	-0.150395	0.226903	-0.301231	-0.445951	-0.263725	1.9266	1.35817	-0.0425677	-0.0936555	-0.794668	-0.308644	-0.219131	1.72937	1.59626	0.0999999	-0.0920333
0.8	-0.0198045	0.0964014	-0.0744146	0.775188	0.999937	-0.308105	-0.437529	-0.112136	-0.0969068	-0.425741	-0.447794	-0.0149002	-0.00521914	0.551152	0.108605	-0.131443	-0.36193	0.0660139	0.00093536	-0.0184272	-0.169169	-0.139762	0.230772	-0.300247	-0.449612	-0.259469	1.93626	1.36756	-0.0425677	-0.0936555	-0.810171	-0.300692	-0.233238	1.74073	1.59298	0.0999999	-0.0920333
0.81	-0.0144589	0.0843758	-0.078781	0.776227	1.0002	-0.30793	-0.432765	-0.107654	-0.0887935	-0.496332	-0.465622	-0.0149002	-0.00521914	0.528761	0.101057	-0.115577	-0.286995	0.082957	0.00093536	-0.0184272	-0.176574	-0.129116	0.232119	-0.298346	-0.451889	-0.254279	1.94295	1.37558	-0.0425677	-0.0936555	-0.817424	-0.293194	-0.244403	1.74991	1.59171	0.0999999	-0.0920333
0.82	-0.00586078	0.073725	-0.0823643	0.776825	0.999863	-0.307808	-0.423036	-0.104472	-0.0794907	-0.582444	-0.469289	-0.0149002	-0.00521914	0.50727	0.0949614	-0.099845	-0.238924	0.0961381	0.00093536	-0.0184272	-0.189022	-0.120399	0.23049	-0.296161	-0.452368	-0.248566	1.94656	1.382	-0.0425677	-0.0936555	-0.816506	-0.287236	-0.252266	1.75746	1.59166	0.0999999	-0.0920333
